<?xml version="1.0" standalone="no"?>
<!DOCTYPE svg PUBLIC "-//W3C//DTD SVG 1.1//EN" "http://www.w3.org/Graphics/SVG/1.1/DTD/svg11.dtd">
<svg version="1.1" xmlns="http://www.w3.org/2000/svg" viewBox="0 0 381.9601742796158 359.09439504763225" width="1145.8805228388474" height="1077.2831851428969"><!-- svg-source:excalidraw --><metadata></metadata><defs><style class="style-fonts">
      </style></defs><g stroke-linecap="round"><g transform="translate(89.87003967190958 10) rotate(0 0.5347788721774123 166.81257566183098)"><path d="M0 0 C3.13 84.46, 1.5 166.18, 1.07 333.63 M0 0 C-1.93 91.16, -1.11 181.86, 1.07 333.63" stroke="#1e1e1e" stroke-width="2" fill="none"></path></g></g><mask></mask><g stroke-linecap="round"><g transform="translate(155.66987750469616 12.311490655822126) rotate(0 0.5347788721774123 166.81257566183098)"><path d="M0 0 C1.9 99.24, 0.92 198.35, 1.07 333.63 M0 0 C2.89 81.65, 3.04 163.13, 1.07 333.63" stroke="#1e1e1e" stroke-width="2" fill="none"></path></g></g><mask></mask><g stroke-linecap="round"><g transform="translate(222.41239235906414 13.081987541096055) rotate(0 0.5347788721774123 166.81257566183103)"><path d="M0 0 C-0.27 90.6, 0.1 180.33, 1.07 333.63 M0 0 C0.61 72.8, -0.27 146.13, 1.07 333.63" stroke="#1e1e1e" stroke-width="2" fill="none"></path></g></g><mask></mask><g stroke-linecap="round"><g transform="translate(288.2605785972364 13.081987541096169) rotate(0 0.5347788721774123 166.81257566183098)"><path d="M0 0 C0.71 76.37, 0.95 154.2, 1.07 333.63 M0 0 C1.45 73.41, 1.38 147.63, 1.07 333.63" stroke="#1e1e1e" stroke-width="2" fill="none"></path></g></g><mask></mask><g stroke-linecap="round"><g transform="translate(10 26.22593327125628) rotate(0 176.12297861680236 -0.5876610460446159)"><path d="M0 0 C124.25 -1.11, 250.19 -0.42, 352.25 -1.18 M0 0 C105.4 -0.69, 211.27 -1.15, 352.25 -1.18" stroke="#1e1e1e" stroke-width="2" fill="none"></path></g></g><mask></mask><g stroke-linecap="round"><g transform="translate(14.147396272769583 89.58733569781327) rotate(0 176.12297861680236 -0.5876610460446159)"><path d="M0 0 C95.81 0.07, 192.82 0.84, 352.25 -1.18 M0 0 C105.39 0.7, 211.86 0.86, 352.25 -1.18" stroke="#1e1e1e" stroke-width="2" fill="none"></path></g></g><mask></mask><g stroke-linecap="round"><g transform="translate(14.798282603433108 151.38566005336907) rotate(0 176.12297861680236 -0.5876610460446159)"><path d="M0 0 C137.06 -0.64, 271.79 -3.3, 352.25 -1.18 M0 0 C126.27 -0.08, 253.42 0.3, 352.25 -1.18" stroke="#1e1e1e" stroke-width="2" fill="none"></path></g></g><mask></mask><g stroke-linecap="round"><g transform="translate(15.566820773242398 217.0977066641043) rotate(0 176.12297861680236 -0.5876610460446159)"><path d="M0 0 C123.06 -3.33, 247.28 -1.28, 352.25 -1.18 M0 0 C94.96 1.43, 188.61 1.16, 352.25 -1.18" stroke="#1e1e1e" stroke-width="2" fill="none"></path></g></g><mask></mask><g stroke-linecap="round"><g transform="translate(19.714217046011072 280.4591090906614) rotate(0 176.12297861680236 -0.5876610460446159)"><path d="M0 0 C132.27 2.98, 262.6 0.89, 352.25 -1.18 M0 0 C84.83 -1.31, 170.14 -1.85, 352.25 -1.18" stroke="#1e1e1e" stroke-width="2" fill="none"></path></g></g><mask></mask><g stroke-linecap="round"><g transform="translate(18.177140706393402 342.96316106392294) rotate(0 176.12297861680236 -0.5876610460446159)"><path d="M0 0 C93.91 0.02, 186.88 -0.22, 352.25 -1.18 M0 0 C86.66 1.24, 172.89 0.41, 352.25 -1.18" stroke="#1e1e1e" stroke-width="2" fill="none"></path></g></g><mask></mask><g stroke-linecap="round" transform="translate(162.7417837846333 157.58996253571888) rotate(0 28.05892823872955 26.936571109180647)"><path d="M5.25 1.91 C5.25 1.91, 5.25 1.91, 5.25 1.91 M5.25 1.91 C5.25 1.91, 5.25 1.91, 5.25 1.91 M6.69 12.44 C9.62 10.55, 11.98 7.89, 15.88 1.88 M6.69 12.44 C9.84 8.69, 13.68 4.53, 15.88 1.88 M6.17 25.24 C12.51 15.04, 20.71 6.4, 26.51 1.84 M6.17 25.24 C11.35 19.29, 15.16 13.93, 26.51 1.84 M2.37 41.81 C14.54 29.34, 25.25 15.34, 37.14 1.81 M2.37 41.81 C13.17 28.09, 25.85 14.39, 37.14 1.81 M5.12 50.83 C20.89 36.58, 32.78 20.38, 47.77 1.77 M5.12 50.83 C15.24 37.5, 27.01 25.54, 47.77 1.77 M11.82 55.32 C22.31 43.74, 31.26 33.15, 55.12 5.51 M11.82 55.32 C22.35 42.16, 33.67 28.64, 55.12 5.51 M22.45 55.29 C31.44 41.89, 43.15 31.88, 57.87 14.53 M22.45 55.29 C35.34 39.47, 49.46 25.77, 57.87 14.53 M33.08 55.25 C43.21 44.34, 51.16 34.42, 57.35 27.33 M33.08 55.25 C38.82 49.63, 43.19 43.51, 57.35 27.33 M43.71 55.22 C47.71 47.31, 54.5 44.41, 57.48 39.37 M43.71 55.22 C48.19 51.75, 51.17 46.44, 57.48 39.37 M5.21 51.93 C5.21 51.93, 5.21 51.93, 5.21 51.93 M5.21 51.93 C5.21 51.93, 5.21 51.93, 5.21 51.93 M14.23 49.17 C9.85 45.11, 5.73 42.2, 2.15 38.68 M14.23 49.17 C11.61 47.84, 9.7 45.75, 2.15 38.68 M26.27 49.04 C16.94 42.58, 12.45 36.9, 2.12 28.05 M26.27 49.04 C16.44 40.91, 8.43 31.87, 2.12 28.05 M43.59 53.5 C32.29 43.69, 15.83 32.3, 2.08 17.42 M43.59 53.5 C29.75 42.01, 16.34 31.05, 2.08 17.42 M51.86 50.09 C38.93 35.75, 22.8 23.1, 2.05 6.79 M51.86 50.09 C39.29 39.23, 27.94 28.84, 2.05 6.79 M56.35 43.39 C40.94 27.22, 25.5 15.01, 6.54 0.09 M56.35 43.39 C41.92 31.65, 26.25 17.34, 6.54 0.09 M56.32 32.76 C44.65 20.64, 30.69 11.55, 15.57 -2.66 M56.32 32.76 C48.28 25.67, 38.3 18.13, 15.57 -2.66 M56.29 22.13 C43.79 11.91, 36.26 3.74, 27.61 -2.8 M56.29 22.13 C46.41 13.84, 37.71 6.56, 27.61 -2.8 M57.01 12.16 C53.28 9, 47 3.12, 40.4 -2.27 M57.01 12.16 C53.66 8.13, 47.89 4.95, 40.4 -2.27" stroke="#e03131" stroke-width="1" fill="none"></path><path d="M13.47 0 C24.37 -0.39, 33.7 -1.55, 42.65 0 M13.47 0 C21.81 0.96, 31.21 -0.28, 42.65 0 M42.65 0 C51.14 -0.83, 56.38 4.28, 56.12 13.47 M42.65 0 C50.81 -1.7, 55.97 2.8, 56.12 13.47 M56.12 13.47 C55.29 19.76, 56.01 29.45, 56.12 40.4 M56.12 13.47 C57.18 18.86, 56.11 25.2, 56.12 40.4 M56.12 40.4 C55.04 49.6, 52.13 53.31, 42.65 53.87 M56.12 40.4 C58.17 49.32, 49.99 52.37, 42.65 53.87 M42.65 53.87 C32.75 55.52, 24.31 55.45, 13.47 53.87 M42.65 53.87 C33.6 54.58, 25.4 53.25, 13.47 53.87 M13.47 53.87 C5.35 54.58, 0.41 50.01, 0 40.4 M13.47 53.87 C5.86 52.74, 0.95 47.42, 0 40.4 M0 40.4 C1.73 30.74, 1.25 20.25, 0 13.47 M0 40.4 C0.83 31.34, -1.05 21.88, 0 13.47 M0 13.47 C-0.84 3.16, 5.43 0.3, 13.47 0 M0 13.47 C-2.29 2.38, 5.75 2.1, 13.47 0" stroke="transparent" stroke-width="2" fill="none"></path></g><g stroke-linecap="round" transform="translate(163.7629267482398 96.88146337411968) rotate(0 28.05892823872955 26.936571109180647)"><path d="M5.25 1.91 C5.25 1.91, 5.25 1.91, 5.25 1.91 M5.25 1.91 C5.25 1.91, 5.25 1.91, 5.25 1.91 M0.79 19.23 C7.54 13.3, 11.78 6.08, 17.19 0.37 M0.79 19.23 C5.84 14.98, 9.62 10.11, 17.19 0.37 M0.92 31.28 C8.35 24.73, 10.41 16.93, 27.82 0.33 M0.92 31.28 C11.08 21.22, 18.92 8.55, 27.82 0.33 M1.05 43.32 C8.27 33.31, 17.41 26.45, 38.45 0.3 M1.05 43.32 C9.63 32.5, 20.01 22.82, 38.45 0.3 M4.47 51.58 C13.69 40.44, 23.73 26.71, 48.42 1.02 M4.47 51.58 C14.77 40.51, 24.18 29.22, 48.42 1.02 M13.13 53.81 C28.1 38.99, 42.77 22.8, 55.12 5.51 M13.13 53.81 C23.1 43.51, 31.58 33.08, 55.12 5.51 M23.76 53.78 C32.92 42.35, 45.41 28.95, 55.91 16.8 M23.76 53.78 C32.56 43.65, 42.43 34.82, 55.91 16.8 M34.39 53.74 C38.12 47.95, 43.09 44.22, 56.04 28.84 M34.39 53.74 C40.78 45.94, 48.9 38.21, 56.04 28.84 M45.02 53.71 C49.1 51.03, 51.9 44.16, 56.17 40.88 M45.02 53.71 C48.46 48.38, 53.73 44.56, 56.17 40.88 M5.21 51.93 C5.21 51.93, 5.21 51.93, 5.21 51.93 M5.21 51.93 C5.21 51.93, 5.21 51.93, 5.21 51.93 M18.76 53.11 C14.61 48.87, 8.37 43.57, 0.64 37.37 M18.76 53.11 C14.22 49.82, 10.85 46.18, 0.64 37.37 M30.8 52.98 C26.54 48.43, 19.67 42.77, 0.61 26.74 M30.8 52.98 C22.71 45.78, 13.9 36.54, 0.61 26.74 M43.59 53.5 C34.37 46.06, 25.82 34.8, 1.33 16.76 M43.59 53.5 C29.45 40.53, 16.73 29.83, 1.33 16.76 M52.62 50.74 C32.26 36.18, 15.99 16.41, 2.05 6.79 M52.62 50.74 C38.97 38.89, 26.49 28.66, 2.05 6.79 M56.35 43.39 C44.88 32.92, 37.64 25.53, 8.05 1.41 M56.35 43.39 C42.88 32.5, 31.69 22.52, 8.05 1.41 M56.32 32.76 C44.1 22.04, 28.12 11.03, 18.58 -0.04 M56.32 32.76 C44.38 20.11, 30.37 9.86, 18.58 -0.04 M56.29 22.13 C46.69 15.52, 40.15 9.2, 30.63 -0.17 M56.29 22.13 C45.59 12.6, 36.59 3.63, 30.63 -0.17 M56.25 11.5 C51.51 7.2, 49.58 4.48, 42.67 -0.31 M56.25 11.5 C53.14 8.22, 49.03 5.4, 42.67 -0.31" stroke="#1971c2" stroke-width="1" fill="none"></path><path d="M13.47 0 C24.19 -1.78, 34.28 1.62, 42.65 0 M13.47 0 C19.52 0.24, 28.06 -0.31, 42.65 0 M42.65 0 C50.57 1.72, 58.06 5.66, 56.12 13.47 M42.65 0 C52.85 -1.78, 57.83 3.04, 56.12 13.47 M56.12 13.47 C54.6 22.22, 54.93 31.56, 56.12 40.4 M56.12 13.47 C56.15 23.63, 57.11 34.48, 56.12 40.4 M56.12 40.4 C54.57 47.49, 51.06 53.29, 42.65 53.87 M56.12 40.4 C55.29 49.53, 49.4 55.93, 42.65 53.87 M42.65 53.87 C34.15 56.15, 23.66 53.57, 13.47 53.87 M42.65 53.87 C33.08 54.42, 22.95 53.07, 13.47 53.87 M13.47 53.87 C3.81 52.75, 0.31 51.12, 0 40.4 M13.47 53.87 C2.92 54.19, -1.29 51.39, 0 40.4 M0 40.4 C0.92 30.71, 1.32 20.01, 0 13.47 M0 40.4 C0.71 32.94, 0.13 26.01, 0 13.47 M0 13.47 C1.8 2.69, 4.82 -1.71, 13.47 0 M0 13.47 C-1.23 6.19, 2.62 0.04, 13.47 0" stroke="transparent" stroke-width="2" fill="none"></path></g><g stroke-linecap="round" transform="translate(230.08321155758495 157.589962535719) rotate(0 28.05892823872955 26.936571109180647)"><path d="M5.25 1.91 C5.25 1.91, 5.25 1.91, 5.25 1.91 M5.25 1.91 C5.25 1.91, 5.25 1.91, 5.25 1.91 M0.79 19.23 C4.64 11.8, 12.02 8.6, 17.19 0.37 M0.79 19.23 C4.8 14.81, 10.04 9.96, 17.19 0.37 M0.92 31.28 C7.17 24.85, 15.98 13.54, 27.82 0.33 M0.92 31.28 C7.69 23.49, 14.09 16.48, 27.82 0.33 M1.05 43.32 C9.81 31.4, 22.1 22.35, 38.45 0.3 M1.05 43.32 C10.53 33.52, 17.58 25.23, 38.45 0.3 M4.47 51.58 C13.17 38.62, 27 27.64, 48.42 1.02 M4.47 51.58 C15.05 40.81, 24.88 29.98, 48.42 1.02 M13.13 53.81 C22.59 43.16, 31.45 34.65, 55.12 5.51 M13.13 53.81 C22.08 42.98, 32.61 29.95, 55.12 5.51 M23.76 53.78 C31.44 44.15, 40.59 37.64, 55.91 16.8 M23.76 53.78 C33.93 44.27, 42.55 33.64, 55.91 16.8 M34.39 53.74 C41.57 44.7, 49.67 36.13, 56.04 28.84 M34.39 53.74 C42.55 44.87, 52.14 33.73, 56.04 28.84 M45.02 53.71 C47.61 49.88, 49.12 49.34, 56.17 40.88 M45.02 53.71 C48.15 49.98, 52.15 44.36, 56.17 40.88 M5.21 51.93 C5.21 51.93, 5.21 51.93, 5.21 51.93 M5.21 51.93 C5.21 51.93, 5.21 51.93, 5.21 51.93 M18.76 53.11 C12.19 47.58, 10.97 45, 0.64 37.37 M18.76 53.11 C12.2 47.42, 3.95 40.61, 0.64 37.37 M30.8 52.98 C20.74 42.71, 10.65 35.55, 0.61 26.74 M30.8 52.98 C20.18 42.44, 8.61 32.55, 0.61 26.74 M43.59 53.5 C29.5 44.04, 16.79 30.28, 1.33 16.76 M43.59 53.5 C30.69 40.98, 17.77 29.39, 1.33 16.76 M52.62 50.74 C36.94 37.63, 18.74 21.33, 2.05 6.79 M52.62 50.74 C38.35 37.73, 22.74 24.89, 2.05 6.79 M56.35 43.39 C41.66 33.42, 31.5 21.88, 8.05 1.41 M56.35 43.39 C44 33.09, 30.72 21.76, 8.05 1.41 M56.32 32.76 C43.84 21.93, 29.19 11.22, 18.58 -0.04 M56.32 32.76 C47.42 26.51, 40.43 19.34, 18.58 -0.04 M56.29 22.13 C47.51 12.27, 35.72 4.16, 30.63 -0.17 M56.29 22.13 C46.55 13.15, 36.54 5.62, 30.63 -0.17 M56.25 11.5 C52.32 6.6, 48.25 4.5, 42.67 -0.31 M56.25 11.5 C50.9 7.53, 45.73 2.17, 42.67 -0.31" stroke="#1971c2" stroke-width="1" fill="none"></path><path d="M13.47 0 C23.59 -0.36, 34.85 1.64, 42.65 0 M13.47 0 C24.1 1.06, 35.31 0.75, 42.65 0 M42.65 0 C52.3 -0.21, 55.07 2.68, 56.12 13.47 M42.65 0 C52.81 1.55, 57.16 2.27, 56.12 13.47 M56.12 13.47 C56.05 20.6, 57 23.64, 56.12 40.4 M56.12 13.47 C56.05 21.54, 57.04 31.48, 56.12 40.4 M56.12 40.4 C57.65 48.45, 53.04 52.34, 42.65 53.87 M56.12 40.4 C57.99 50.82, 49.8 52.96, 42.65 53.87 M42.65 53.87 C33.67 53.56, 28.89 51.88, 13.47 53.87 M42.65 53.87 C35.14 54.32, 29.23 53.2, 13.47 53.87 M13.47 53.87 C6.46 53.7, -1.4 49.16, 0 40.4 M13.47 53.87 C5.54 55.36, 1.22 49.96, 0 40.4 M0 40.4 C-1.65 31.94, 0.82 19.31, 0 13.47 M0 40.4 C-0.17 35.22, -0.05 29.78, 0 13.47 M0 13.47 C0.13 3.18, 4.98 0.34, 13.47 0 M0 13.47 C1.49 6.53, 2.48 -1.44, 13.47 0" stroke="transparent" stroke-width="2" fill="none"></path></g><g stroke-linecap="round" transform="translate(161.61942665508377 222.68667604957204) rotate(0 28.05892823872955 26.936571109180647)"><path d="M5.25 1.91 C5.25 1.91, 5.25 1.91, 5.25 1.91 M5.25 1.91 C5.25 1.91, 5.25 1.91, 5.25 1.91 M0.79 19.23 C6.13 13.09, 8.63 9.68, 17.19 0.37 M0.79 19.23 C5.93 11.69, 13.34 6.31, 17.19 0.37 M0.92 31.28 C8.83 21.45, 16.33 12.24, 27.82 0.33 M0.92 31.28 C7.78 22.08, 14.38 15.7, 27.82 0.33 M1.05 43.32 C15.11 28.56, 29.71 10.01, 38.45 0.3 M1.05 43.32 C9.52 32.76, 17.35 23.75, 38.45 0.3 M4.47 51.58 C16.43 42.07, 25.4 30.29, 48.42 1.02 M4.47 51.58 C22.24 31.11, 39.68 12.35, 48.42 1.02 M13.13 53.81 C24.15 39.98, 36.64 24.88, 55.12 5.51 M13.13 53.81 C23.46 42.17, 31.6 31.3, 55.12 5.51 M23.76 53.78 C36.24 42.46, 46.04 27.67, 55.91 16.8 M23.76 53.78 C32 44.59, 37.71 37.19, 55.91 16.8 M34.39 53.74 C40.06 48.77, 44.41 38.97, 56.04 28.84 M34.39 53.74 C43.12 43.85, 51.34 34.8, 56.04 28.84 M45.02 53.71 C47.73 52.21, 48.63 49.58, 56.17 40.88 M45.02 53.71 C49.23 49.55, 52.97 44.73, 56.17 40.88 M5.21 51.93 C5.21 51.93, 5.21 51.93, 5.21 51.93 M5.21 51.93 C5.21 51.93, 5.21 51.93, 5.21 51.93 M18.76 53.11 C14.72 50.14, 12.48 47.72, 0.64 37.37 M18.76 53.11 C14.07 48.11, 7.35 44.59, 0.64 37.37 M30.8 52.98 C23.88 44.44, 15.87 38.17, 0.61 26.74 M30.8 52.98 C22.85 44.58, 12.88 37.1, 0.61 26.74 M43.59 53.5 C34.55 45.2, 25.7 36.43, 1.33 16.76 M43.59 53.5 C27.75 40.84, 13.57 28.79, 1.33 16.76 M52.62 50.74 C36.63 37.57, 21.94 24.73, 2.05 6.79 M52.62 50.74 C38.52 38.52, 24.3 25.72, 2.05 6.79 M56.35 43.39 C39.23 25.9, 20.66 12.56, 8.05 1.41 M56.35 43.39 C39.45 28.95, 24.32 16.12, 8.05 1.41 M56.32 32.76 C39.99 19.21, 27.06 8.72, 18.58 -0.04 M56.32 32.76 C41.9 19.35, 26.52 7.18, 18.58 -0.04 M56.29 22.13 C50.7 18.99, 44.63 12.47, 30.63 -0.17 M56.29 22.13 C47.49 14.05, 36.44 6.29, 30.63 -0.17 M56.25 11.5 C50.79 7.59, 48.2 3.1, 42.67 -0.31 M56.25 11.5 C51.8 7.39, 46.91 3.44, 42.67 -0.31" stroke="#1971c2" stroke-width="1" fill="none"></path><path d="M13.47 0 C24.12 -1.95, 30.92 1.67, 42.65 0 M13.47 0 C19.92 0.31, 26.05 -0.75, 42.65 0 M42.65 0 C52.12 0.34, 57.41 6.27, 56.12 13.47 M42.65 0 C49.61 -1.44, 54.01 2.87, 56.12 13.47 M56.12 13.47 C54.76 22.77, 54.05 28.21, 56.12 40.4 M56.12 13.47 C56.63 20.32, 56.65 28.59, 56.12 40.4 M56.12 40.4 C56.79 50.39, 50.56 52.27, 42.65 53.87 M56.12 40.4 C57.63 50.46, 50.45 52.54, 42.65 53.87 M42.65 53.87 C35.26 54.27, 23.39 53.11, 13.47 53.87 M42.65 53.87 C36.41 53.55, 29.4 54.7, 13.47 53.87 M13.47 53.87 C2.78 54.02, -0.21 48.58, 0 40.4 M13.47 53.87 C6.31 52.98, 0.98 47.8, 0 40.4 M0 40.4 C1.37 31.85, -1.11 25.64, 0 13.47 M0 40.4 C0.86 29.07, -0.22 18.36, 0 13.47 M0 13.47 C-1.79 3.1, 6.21 -0.49, 13.47 0 M0 13.47 C-1.79 4.33, 3.66 1.8, 13.47 0" stroke="transparent" stroke-width="2" fill="none"></path></g><g stroke-linecap="round" transform="translate(92.03328462303398 157.58996253571888) rotate(0 28.05892823872955 26.936571109180647)"><path d="M5.25 1.91 C5.25 1.91, 5.25 1.91, 5.25 1.91 M5.25 1.91 C5.25 1.91, 5.25 1.91, 5.25 1.91 M6.69 12.44 C8.59 9.54, 10.98 6.53, 15.88 1.88 M6.69 12.44 C8.8 9.66, 12.2 6.26, 15.88 1.88 M6.17 25.24 C10.24 17.27, 19.31 10.54, 26.51 1.84 M6.17 25.24 C11.06 19.87, 15.13 14.53, 26.51 1.84 M2.37 41.81 C8.24 34.72, 17.97 25.05, 37.14 1.81 M2.37 41.81 C11.79 30.86, 22.72 18.47, 37.14 1.81 M5.12 50.83 C19.14 33.53, 34.38 20.76, 47.77 1.77 M5.12 50.83 C22.19 32.22, 37.35 12.69, 47.77 1.77 M11.82 55.32 C21.11 45.39, 31.35 33.27, 55.12 5.51 M11.82 55.32 C28.83 34.63, 46.67 15.91, 55.12 5.51 M22.45 55.29 C31.39 43.9, 43.27 29.59, 57.87 14.53 M22.45 55.29 C31.75 42.79, 42.43 30.14, 57.87 14.53 M33.08 55.25 C39.88 47.49, 46.4 39.57, 57.35 27.33 M33.08 55.25 C41.02 45.75, 50.23 36.34, 57.35 27.33 M43.71 55.22 C48.57 50.78, 53.23 45.54, 57.48 39.37 M43.71 55.22 C49.25 49.5, 54.35 43.33, 57.48 39.37 M5.21 51.93 C5.21 51.93, 5.21 51.93, 5.21 51.93 M5.21 51.93 C5.21 51.93, 5.21 51.93, 5.21 51.93 M18.76 53.11 C12.84 48.81, 7.15 39.27, 0.64 37.37 M18.76 53.11 C11.53 46.98, 3.63 40.33, 0.64 37.37 M30.8 52.98 C19.48 43.74, 10.38 35.47, 0.61 26.74 M30.8 52.98 C21.04 46.05, 13.47 38.63, 0.61 26.74 M43.59 53.5 C34.09 43.58, 22.03 32.89, 1.33 16.76 M43.59 53.5 C28.38 40.4, 13.13 27.54, 1.33 16.76 M52.62 50.74 C35.99 35.55, 15.59 18.53, 2.05 6.79 M52.62 50.74 C41.01 40.06, 28.94 29.2, 2.05 6.79 M56.35 43.39 C38.51 26.34, 19.56 10.47, 8.05 1.41 M56.35 43.39 C46.59 34.72, 36.1 25.97, 8.05 1.41 M56.32 32.76 C43.29 23.32, 31.87 11.61, 18.58 -0.04 M56.32 32.76 C45.09 22.55, 33.18 12.61, 18.58 -0.04 M56.29 22.13 C47.05 13.23, 40.41 9.13, 30.63 -0.17 M56.29 22.13 C50.82 17.82, 45.54 11.14, 30.63 -0.17 M56.25 11.5 C51.13 7, 48.48 2.18, 42.67 -0.31 M56.25 11.5 C52.35 8.15, 47.78 5.13, 42.67 -0.31" stroke="#1971c2" stroke-width="1" fill="none"></path><path d="M13.47 0 C20.56 1.6, 27.26 -0.56, 42.65 0 M13.47 0 C21.12 -0.04, 26.28 0.13, 42.65 0 M42.65 0 C50.91 1.57, 56.72 6.21, 56.12 13.47 M42.65 0 C53.23 -1.84, 54.42 2.81, 56.12 13.47 M56.12 13.47 C57.87 20.22, 57.22 27.35, 56.12 40.4 M56.12 13.47 C55.5 18.35, 56.95 23.41, 56.12 40.4 M56.12 40.4 C56.18 48.52, 52.96 55.56, 42.65 53.87 M56.12 40.4 C55.82 47.75, 50.15 55.45, 42.65 53.87 M42.65 53.87 C32.72 54.03, 19.8 53.25, 13.47 53.87 M42.65 53.87 C34.52 54.05, 23.6 53.69, 13.47 53.87 M13.47 53.87 C5.85 55.46, -1.4 48.02, 0 40.4 M13.47 53.87 C3.98 55.38, -0.03 48.33, 0 40.4 M0 40.4 C-0.06 33.53, -1.97 29.4, 0 13.47 M0 40.4 C0.96 35.18, 0.41 28.91, 0 13.47 M0 13.47 C1.78 3.39, 4.7 0.8, 13.47 0 M0 13.47 C-1.74 6.2, 4.81 -0.34, 13.47 0" stroke="transparent" stroke-width="2" fill="none"></path></g><g stroke-linecap="round"><g transform="translate(26.541371606503162 14.34688659442088) rotate(0 0.5347788721774123 166.81257566183103)"><path d="M0 0 C-0.65 98.84, -0.79 195.81, 1.07 333.63 M0 0 C-1.17 98.64, -1.05 196.27, 1.07 333.63" stroke="#1e1e1e" stroke-width="2" fill="none"></path></g></g><mask></mask><g stroke-linecap="round"><g transform="translate(354.2696534348679 15.469243723970294) rotate(0 0.5347788721774123 166.81257566183098)"><path d="M0 0 C-0.81 89.3, 0.25 181.04, 1.07 333.63 M0 0 C-1.45 95.05, -1.24 189.94, 1.07 333.63" stroke="#1e1e1e" stroke-width="2" fill="none"></path></g></g><mask></mask></svg>